<?xml version="1.0" standalone="no"?>
<!DOCTYPE svg PUBLIC "-//W3C//DTD SVG 1.1//EN" "http://www.w3.org/Graphics/SVG/1.1/DTD/svg11.dtd">
<svg width="132mm" height="130mm" viewBox="-58 -65 132 130" xmlns="http://www.w3.org/2000/svg" version="1.1">
<title>OpenSCAD Model</title>
<path d="
M -27.2806,64.4509 L -25.4905,63.772 L -23.7828,62.8758 L -12.4557,56.3361 L -6.19069,57.6678 L 6.19069,57.6678
 L 16.4151,55.4945 L 18.2877,55.0329 L 27.8368,50.7814 L 29.5445,49.8851 L 38.001,43.7411 L 39.4446,42.4622
 L 46.4389,34.6942 L 47.5345,33.107 L 52.7609,24.0546 L 53.4448,22.2513 L 55.0298,17.3733 L 68.0159,9.87579
 L 69.4595,8.59691 L 70.729,7.16386 L 71.8246,5.57666 L 72.5085,3.77341 L 72.9667,1.91452 L 73.1991,-0
 L 72.9667,-1.91452 L 72.5085,-3.77341 L 71.8246,-5.57666 L 70.729,-7.16386 L 69.4595,-8.59691 L 68.0159,-9.87579
 L 55.0298,-17.3733 L 53.4448,-22.2513 L 52.7609,-24.0546 L 47.5345,-33.107 L 46.4389,-34.6942 L 39.4446,-42.4622
 L 38.001,-43.7411 L 29.5445,-49.8851 L 27.8368,-50.7814 L 18.2877,-55.0329 L 16.4151,-55.4945 L 6.19069,-57.6678
 L -6.19069,-57.6678 L -12.4557,-56.3361 L -23.7828,-62.8758 L -25.4905,-63.772 L -27.2806,-64.4509 L -29.1532,-64.9125
 L -31.0817,-64.9125 L -32.9823,-64.6817 L -34.8548,-64.2202 L -36.5625,-63.3239 L -38.1381,-62.2363 L -39.5817,-60.9575
 L -40.6772,-59.3703 L -41.567,-57.675 L -42.2509,-55.8718 L -42.4833,-53.9573 L -42.4833,-39.0874 L -46.4389,-34.6942
 L -47.5345,-33.107 L -52.7609,-24.0546 L -53.4448,-22.2513 L -56.6749,-12.3101 L -56.9074,-10.3956 L -58,-0
 L -56.9074,10.3956 L -56.6749,12.3101 L -53.4448,22.2513 L -52.7609,24.0546 L -47.5345,33.107 L -46.4389,34.6942
 L -42.4833,39.0874 L -42.4833,53.9573 L -42.2509,55.8718 L -41.567,57.675 L -40.6772,59.3703 L -39.5817,60.9575
 L -38.1381,62.2363 L -36.5625,63.3239 L -34.8548,64.2202 L -32.9823,64.6817 L -31.0817,64.9125 L -29.1532,64.9125
 z
M -30.8018,-52.853 L -30.8018,-53.1469 L -30.5223,-53.2378 L -30.3496,-53 L -30.5223,-52.7622 z
M 60.9969,0.146942 L 60.9969,-0.146942 L 61.2764,-0.237762 L 61.4491,-0 L 61.2764,0.237762 z
M -30.8018,53.1469 L -30.8018,52.853 L -30.5223,52.7622 L -30.3496,53 L -30.5223,53.2378 z
" stroke="black" fill="lightgray" stroke-width="0.5"/>
</svg>
